<?xml version="1.0" encoding="utf-8"?>
<!-- Generator: Adobe Illustrator 25.3.1, SVG Export Plug-In . SVG Version: 6.00 Build 0)  -->
<svg version="1.1" id="Layer_1" xmlns="http://www.w3.org/2000/svg" xmlns:xlink="http://www.w3.org/1999/xlink" x="0px" y="0px"
	 viewBox="0 0 48 48" style="enable-background:new 0 0 48 48;" xml:space="preserve">
<style type="text/css">
	.st0{fill:none;}
</style>
<rect class="st0" width="48" height="48"/>
<path d="M44,24c0,1.1-0.9,2-2,2H26v16c0,1.1-0.9,2-2,2s-2-0.9-2-2V26H6c-1.1,0-2-0.9-2-2s0.9-2,2-2h16V6c0-1.1,0.9-2,2-2s2,0.9,2,2
	v16h16C43.1,22,44,22.9,44,24z M40,24c0,8.8-7.2,16-16,16S8,32.8,8,24S15.2,8,24,8S40,15.2,40,24z M36,24c0-6.6-5.4-12-12-12
	s-12,5.4-12,12s5.4,12,12,12S36,30.6,36,24z M24,16c-4.4,0-8,3.6-8,8s3.6,8,8,8s8-3.6,8-8S28.4,16,24,16z"/>
</svg>
