<?xml version="1.0" encoding="utf-8"?>
<!-- Generator: Adobe Illustrator 26.4.1, SVG Export Plug-In . SVG Version: 6.00 Build 0)  -->
<svg version="1.1" id="Layer_1" xmlns="http://www.w3.org/2000/svg" xmlns:xlink="http://www.w3.org/1999/xlink" x="0px" y="0px"
	 viewBox="0 0 24 24" style="enable-background:new 0 0 24 24;" xml:space="preserve">
<path d="M12,4c-4.4,0-8,3.6-8,8s3.6,8,8,8s8-3.6,8-8S16.4,4,12,4z M12,18c-3.3,0-6-2.7-6-6s2.7-6,6-6s6,2.7,6,6S15.3,18,12,18z
	 M16,12c0,2.2-1.8,4-4,4s-4-1.8-4-4s1.8-4,4-4S16,9.8,16,12z M21,11h-8V3c0-0.5-0.5-1-1-1s-1,0.5-1,1v8H3c-0.5,0-1,0.5-1,1
	s0.5,1,1,1h8v8c0,0.5,0.5,1,1,1s1-0.5,1-1v-8h8c0.5,0,1-0.5,1-1S21.5,11,21,11z"/>
</svg>
