<?xml version="1.0" encoding="utf-8"?>
<!-- Generator: Adobe Illustrator 27.0.0, SVG Export Plug-In . SVG Version: 6.00 Build 0)  -->
<svg version="1.1" id="Layer_1" xmlns="http://www.w3.org/2000/svg" xmlns:xlink="http://www.w3.org/1999/xlink" x="0px" y="0px"
	 viewBox="0 0 24 24" style="enable-background:new 0 0 24 24;" xml:space="preserve">
<style type="text/css">
	.st0{fill:none;}
</style>
<g>
	<path d="M12,5c-3.8,0-7,3.1-7,7s3.2,7,7,7s7-3.2,7-7S15.8,5,12,5z M12,17c-2.7,0-5-2.2-5-5s2.3-5,5-5s5,2.2,5,5S14.8,17,12,17z
		 M22,11h-9V2h-2v9H2v2h9v9h2v-9h9V11z"/>
	<rect x="0" y="0" class="st0" width="24" height="24"/>
</g>
</svg>
